<?xml version="1.0" encoding="UTF-8" standalone="no"?>
<svg
   xmlns:dc="http://purl.org/dc/elements/1.1/"
   xmlns:cc="http://creativecommons.org/ns#"
   xmlns:rdf="http://www.w3.org/1999/02/22-rdf-syntax-ns#"
   xmlns:svg="http://www.w3.org/2000/svg"
   xmlns="http://www.w3.org/2000/svg"
   id="svg8"
   version="1.1"
   viewBox="0 0 210 297"
   height="297mm"
   width="210mm">
  <defs
     id="defs2">
    <marker
       id="DistanceX"
       orient="auto"
       refX="0.0"
       refY="0.0"
       style="overflow:visible">
      <path
         d="M 3,-3 L -3,3 M 0,-5 L  0,5"
         style="stroke:#000000; stroke-width:0.5"
         id="path70" />
    </marker>
    <pattern
       height="8"
       id="Hatch"
       patternUnits="userSpaceOnUse"
       width="8"
       x="0"
       y="0">
      <path
         d="M8 4 l-4,4"
         linecap="square"
         stroke="#000000"
         stroke-width="0.25"
         id="path73" />
      <path
         d="M6 2 l-4,4"
         linecap="square"
         stroke="#000000"
         stroke-width="0.25"
         id="path75" />
      <path
         d="M4 0 l-4,4"
         linecap="square"
         stroke="#000000"
         stroke-width="0.25"
         id="path77" />
    </pattern>
    <symbol
       id="*Model_Space" />
    <symbol
       id="*Paper_Space" />
    <symbol
       id="*Paper_Space0" />
  </defs>
  <metadata
     id="metadata5">
    <rdf:RDF>
      <cc:Work
         rdf:about="">
        <dc:format>image/svg+xml</dc:format>
        <dc:type
           rdf:resource="http://purl.org/dc/dcmitype/StillImage" />
        <dc:title></dc:title>
      </cc:Work>
    </rdf:RDF>
  </metadata>
  <g
     id="layer1">
    <g
       transform="matrix(0.26458333,0,0,0.26458333,69.5,-70.999999)"
       id="g93">
      <path
         d="m 117.16535,559.37008 h 34.01575 a 7.559055,7.559055 0 0 0 7.55906,-7.55906 v 0 a 7.559055,7.559055 0 0 0 -7.55906,-7.55905 h -34.01575 a 7.559055,7.559055 0 0 0 -7.55905,7.55905 v 0 a 7.559055,7.559055 0 0 0 7.55905,7.55906 z"
         style="fill:none;stroke:#000000"
         id="path85" />
      <path
         d="m 185.19685,551.81102 a 7.559055,7.559055 0 1 0 -15.11811,0 7.559055,7.559055 0 1 0 15.11811,0 z"
         style="fill:none;stroke:#000000"
         id="path87" />
      <path
         d="m 49.133858,559.37008 h 9.448819 a 7.559055,7.559055 0 0 0 7.559055,-7.55906 v 0 a 7.559055,7.559055 0 0 0 -7.559055,-7.55905 h -9.448819 a 7.559055,7.559055 0 0 0 -7.559055,7.55905 v 0 a 7.559055,7.559055 0 0 0 7.559055,7.55906 z"
         style="fill:none;stroke:#000000"
         id="path89" />
      <path
         d="m 30.23622,1122.5197 h 207.87402 a 30.23622,30.23622 0 0 0 30.23622,-30.2362 V 566.92913 A 30.23622,30.23622 0 0 0 238.11024,536.69291 H 30.23622 A 30.23622,30.23622 0 0 0 0,566.92913 v 525.35437 a 30.23622,30.23622 0 0 0 30.23622,30.2362 z"
         style="fill:none;stroke:#000000"
         id="path91" />
    </g>
  </g>
</svg>
